<svg width="163" height="87" viewBox="0 0 163 87" fill="none" xmlns="http://www.w3.org/2000/svg">
<path d="M81.6894 35.5909H67.8377C67.671 35.5931 67.5054 35.5618 67.3509 35.4988C67.1964 35.4359 67.0561 35.3425 66.9382 35.2242C66.8202 35.106 66.7271 34.9652 66.6643 34.8103C66.6015 34.6554 66.5703 34.4894 66.5725 34.3222V20.4318C66.5725 16.4114 68.1652 12.5556 71.0001 9.71272C73.8351 6.86983 77.6802 5.27272 81.6894 5.27272V5.27272C83.6746 5.27272 85.6404 5.66482 87.4744 6.42664C89.3085 7.18845 90.975 8.30506 92.3787 9.71272C93.7825 11.1204 94.896 12.7915 95.6557 14.6307C96.4154 16.4699 96.8064 18.4411 96.8064 20.4318V20.4318C96.8064 22.4225 96.4154 24.3938 95.6557 26.2329C94.896 28.0721 93.7825 29.7433 92.3787 31.1509C90.975 32.5586 89.3085 33.6752 87.4744 34.437C85.6404 35.1988 83.6746 35.5909 81.6894 35.5909V35.5909Z" stroke="#00B37E" stroke-width="2" stroke-linecap="round" stroke-linejoin="round"/>
<path d="M76.4314 18.4545H86.2903" stroke="#996DFF" stroke-width="2" stroke-linecap="round" stroke-linejoin="round"/>
<path d="M76.4314 23.7273H86.2903" stroke="#996DFF" stroke-width="2" stroke-linecap="round" stroke-linejoin="round"/>
<path d="M19.6562 55.25V78H16.6406V55.25H19.6562ZM29.1875 65.4844V67.9531H19V65.4844H29.1875ZM30.7344 55.25V57.7188H19V55.25H30.7344ZM37.0312 61.0938V78H34.125V61.0938H37.0312ZM33.9062 56.6094C33.9062 56.1406 34.0469 55.7448 34.3281 55.4219C34.6198 55.099 35.0469 54.9375 35.6094 54.9375C36.1615 54.9375 36.5833 55.099 36.875 55.4219C37.1771 55.7448 37.3281 56.1406 37.3281 56.6094C37.3281 57.0573 37.1771 57.4427 36.875 57.7656C36.5833 58.0781 36.1615 58.2344 35.6094 58.2344C35.0469 58.2344 34.6198 58.0781 34.3281 57.7656C34.0469 57.4427 33.9062 57.0573 33.9062 56.6094ZM43.625 61.0938L47.3281 67.25L51.0781 61.0938H54.4688L48.9375 69.4375L54.6406 78H51.2969L47.3906 71.6562L43.4844 78H40.125L45.8125 69.4375L40.2969 61.0938H43.625Z" fill="#996DFF"/>
<path d="M72.8438 65.0312V67.4844H60.5312V65.0312H72.8438ZM61 55.25V78H57.9844V55.25H61ZM75.4688 55.25V78H72.4688V55.25H75.4688ZM87.4062 78.3125C86.2292 78.3125 85.1615 78.1146 84.2031 77.7188C83.2552 77.3125 82.4375 76.7448 81.75 76.0156C81.0729 75.2865 80.5521 74.4219 80.1875 73.4219C79.8229 72.4219 79.6406 71.3281 79.6406 70.1406V69.4844C79.6406 68.1094 79.8438 66.8854 80.25 65.8125C80.6562 64.7292 81.2083 63.8125 81.9062 63.0625C82.6042 62.3125 83.3958 61.7448 84.2812 61.3594C85.1667 60.974 86.0833 60.7812 87.0312 60.7812C88.2396 60.7812 89.2812 60.9896 90.1562 61.4062C91.0417 61.8229 91.7656 62.4062 92.3281 63.1562C92.8906 63.8958 93.3073 64.7708 93.5781 65.7812C93.849 66.7812 93.9844 67.875 93.9844 69.0625V70.3594H81.3594V68H91.0938V67.7812C91.0521 67.0312 90.8958 66.3021 90.625 65.5938C90.3646 64.8854 89.9479 64.3021 89.375 63.8438C88.8021 63.3854 88.0208 63.1562 87.0312 63.1562C86.375 63.1562 85.7708 63.2969 85.2188 63.5781C84.6667 63.849 84.1927 64.2552 83.7969 64.7969C83.401 65.3385 83.0938 66 82.875 66.7812C82.6562 67.5625 82.5469 68.4635 82.5469 69.4844V70.1406C82.5469 70.9427 82.6562 71.6979 82.875 72.4062C83.1042 73.1042 83.4323 73.7188 83.8594 74.25C84.2969 74.7812 84.8229 75.1979 85.4375 75.5C86.0625 75.8021 86.7708 75.9531 87.5625 75.9531C88.5833 75.9531 89.4479 75.7448 90.1562 75.3281C90.8646 74.9115 91.4844 74.3542 92.0156 73.6562L93.7656 75.0469C93.401 75.599 92.9375 76.125 92.375 76.625C91.8125 77.125 91.1198 77.5312 90.2969 77.8438C89.4844 78.1562 88.5208 78.3125 87.4062 78.3125ZM100.5 54V78H97.5938V54H100.5ZM108.031 64.3438V84.5H105.125V61.0938H107.781L108.031 64.3438ZM119.422 69.4062V69.7344C119.422 70.9635 119.276 72.1042 118.984 73.1562C118.693 74.1979 118.266 75.1042 117.703 75.875C117.151 76.6458 116.469 77.2448 115.656 77.6719C114.844 78.099 113.911 78.3125 112.859 78.3125C111.786 78.3125 110.839 78.1354 110.016 77.7812C109.193 77.4271 108.495 76.9115 107.922 76.2344C107.349 75.5573 106.891 74.7448 106.547 73.7969C106.214 72.849 105.984 71.7812 105.859 70.5938V68.8438C105.984 67.5938 106.219 66.474 106.562 65.4844C106.906 64.4948 107.359 63.651 107.922 62.9531C108.495 62.2448 109.188 61.7083 110 61.3438C110.812 60.9688 111.75 60.7812 112.812 60.7812C113.875 60.7812 114.818 60.9896 115.641 61.4062C116.464 61.8125 117.156 62.3958 117.719 63.1562C118.281 63.9167 118.703 64.8281 118.984 65.8906C119.276 66.9427 119.422 68.1146 119.422 69.4062ZM116.516 69.7344V69.4062C116.516 68.5625 116.427 67.7708 116.25 67.0312C116.073 66.2812 115.797 65.625 115.422 65.0625C115.057 64.4896 114.589 64.0417 114.016 63.7188C113.443 63.3854 112.76 63.2188 111.969 63.2188C111.24 63.2188 110.604 63.3438 110.062 63.5938C109.531 63.8438 109.078 64.1823 108.703 64.6094C108.328 65.026 108.021 65.5052 107.781 66.0469C107.552 66.5781 107.38 67.1302 107.266 67.7031V71.75C107.474 72.4792 107.766 73.1667 108.141 73.8125C108.516 74.4479 109.016 74.9635 109.641 75.3594C110.266 75.7448 111.052 75.9375 112 75.9375C112.781 75.9375 113.453 75.776 114.016 75.4531C114.589 75.1198 115.057 74.6667 115.422 74.0938C115.797 73.5208 116.073 72.8646 116.25 72.125C116.427 71.375 116.516 70.5781 116.516 69.7344ZM130.125 78.3125C128.948 78.3125 127.88 78.1146 126.922 77.7188C125.974 77.3125 125.156 76.7448 124.469 76.0156C123.792 75.2865 123.271 74.4219 122.906 73.4219C122.542 72.4219 122.359 71.3281 122.359 70.1406V69.4844C122.359 68.1094 122.562 66.8854 122.969 65.8125C123.375 64.7292 123.927 63.8125 124.625 63.0625C125.323 62.3125 126.115 61.7448 127 61.3594C127.885 60.974 128.802 60.7812 129.75 60.7812C130.958 60.7812 132 60.9896 132.875 61.4062C133.76 61.8229 134.484 62.4062 135.047 63.1562C135.609 63.8958 136.026 64.7708 136.297 65.7812C136.568 66.7812 136.703 67.875 136.703 69.0625V70.3594H124.078V68H133.812V67.7812C133.771 67.0312 133.615 66.3021 133.344 65.5938C133.083 64.8854 132.667 64.3021 132.094 63.8438C131.521 63.3854 130.74 63.1562 129.75 63.1562C129.094 63.1562 128.49 63.2969 127.938 63.5781C127.385 63.849 126.911 64.2552 126.516 64.7969C126.12 65.3385 125.812 66 125.594 66.7812C125.375 67.5625 125.266 68.4635 125.266 69.4844V70.1406C125.266 70.9427 125.375 71.6979 125.594 72.4062C125.823 73.1042 126.151 73.7188 126.578 74.25C127.016 74.7812 127.542 75.1979 128.156 75.5C128.781 75.8021 129.49 75.9531 130.281 75.9531C131.302 75.9531 132.167 75.7448 132.875 75.3281C133.583 74.9115 134.203 74.3542 134.734 73.6562L136.484 75.0469C136.12 75.599 135.656 76.125 135.094 76.625C134.531 77.125 133.839 77.5312 133.016 77.8438C132.203 78.1562 131.24 78.3125 130.125 78.3125ZM142.969 63.75V78H140.078V61.0938H142.891L142.969 63.75ZM148.25 61L148.234 63.6875C147.995 63.6354 147.766 63.6042 147.547 63.5938C147.339 63.5729 147.099 63.5625 146.828 63.5625C146.161 63.5625 145.573 63.6667 145.062 63.875C144.552 64.0833 144.12 64.375 143.766 64.75C143.411 65.125 143.13 65.5729 142.922 66.0938C142.724 66.6042 142.594 67.1667 142.531 67.7812L141.719 68.25C141.719 67.2292 141.818 66.2708 142.016 65.375C142.224 64.4792 142.542 63.6875 142.969 63C143.396 62.3021 143.938 61.7604 144.594 61.375C145.26 60.9792 146.052 60.7812 146.969 60.7812C147.177 60.7812 147.417 60.8073 147.688 60.8594C147.958 60.901 148.146 60.9479 148.25 61Z" fill="#00B37E"/>
</svg>
