<svg width="131" height="28" viewBox="0 0 131 28" fill="none" xmlns="http://www.w3.org/2000/svg">
<path d="M33.2422 4.9375V22H30.9805V4.9375H33.2422ZM40.3906 12.6133V14.4648H32.75V12.6133H40.3906ZM41.5508 4.9375V6.78906H32.75V4.9375H41.5508ZM46.2734 9.32031V22H44.0938V9.32031H46.2734ZM43.9297 5.95703C43.9297 5.60547 44.0352 5.30859 44.2461 5.06641C44.4648 4.82422 44.7852 4.70312 45.207 4.70312C45.6211 4.70312 45.9375 4.82422 46.1562 5.06641C46.3828 5.30859 46.4961 5.60547 46.4961 5.95703C46.4961 6.29297 46.3828 6.58203 46.1562 6.82422C45.9375 7.05859 45.6211 7.17578 45.207 7.17578C44.7852 7.17578 44.4648 7.05859 44.2461 6.82422C44.0352 6.58203 43.9297 6.29297 43.9297 5.95703ZM51.2188 9.32031L53.9961 13.9375L56.8086 9.32031H59.3516L55.2031 15.5781L59.4805 22H56.9727L54.043 17.2422L51.1133 22H48.5938L52.8594 15.5781L48.7227 9.32031H51.2188Z" fill="#996DFF"/>
<path d="M73.1328 12.2734V14.1133H63.8984V12.2734H73.1328ZM64.25 4.9375V22H61.9883V4.9375H64.25ZM75.1016 4.9375V22H72.8516V4.9375H75.1016ZM84.0547 22.2344C83.1719 22.2344 82.3711 22.0859 81.6523 21.7891C80.9414 21.4844 80.3281 21.0586 79.8125 20.5117C79.3047 19.9648 78.9141 19.3164 78.6406 18.5664C78.3672 17.8164 78.2305 16.9961 78.2305 16.1055V15.6133C78.2305 14.582 78.3828 13.6641 78.6875 12.8594C78.9922 12.0469 79.4062 11.3594 79.9297 10.7969C80.4531 10.2344 81.0469 9.80859 81.7109 9.51953C82.375 9.23047 83.0625 9.08594 83.7734 9.08594C84.6797 9.08594 85.4609 9.24219 86.1172 9.55469C86.7812 9.86719 87.3242 10.3047 87.7461 10.8672C88.168 11.4219 88.4805 12.0781 88.6836 12.8359C88.8867 13.5859 88.9883 14.4062 88.9883 15.2969V16.2695H79.5195V14.5H86.8203V14.3359C86.7891 13.7734 86.6719 13.2266 86.4688 12.6953C86.2734 12.1641 85.9609 11.7266 85.5312 11.3828C85.1016 11.0391 84.5156 10.8672 83.7734 10.8672C83.2812 10.8672 82.8281 10.9727 82.4141 11.1836C82 11.3867 81.6445 11.6914 81.3477 12.0977C81.0508 12.5039 80.8203 13 80.6562 13.5859C80.4922 14.1719 80.4102 14.8477 80.4102 15.6133V16.1055C80.4102 16.707 80.4922 17.2734 80.6562 17.8047C80.8281 18.3281 81.0742 18.7891 81.3945 19.1875C81.7227 19.5859 82.1172 19.8984 82.5781 20.125C83.0469 20.3516 83.5781 20.4648 84.1719 20.4648C84.9375 20.4648 85.5859 20.3086 86.1172 19.9961C86.6484 19.6836 87.1133 19.2656 87.5117 18.7422L88.8242 19.7852C88.5508 20.1992 88.2031 20.5938 87.7812 20.9688C87.3594 21.3438 86.8398 21.6484 86.2227 21.8828C85.6133 22.1172 84.8906 22.2344 84.0547 22.2344ZM93.875 4V22H91.6953V4H93.875ZM99.5234 11.7578V26.875H97.3438V9.32031H99.3359L99.5234 11.7578ZM108.066 15.5547V15.8008C108.066 16.7227 107.957 17.5781 107.738 18.3672C107.52 19.1484 107.199 19.8281 106.777 20.4062C106.363 20.9844 105.852 21.4336 105.242 21.7539C104.633 22.0742 103.934 22.2344 103.145 22.2344C102.34 22.2344 101.629 22.1016 101.012 21.8359C100.395 21.5703 99.8711 21.1836 99.4414 20.6758C99.0117 20.168 98.668 19.5586 98.4102 18.8477C98.1602 18.1367 97.9883 17.3359 97.8945 16.4453V15.1328C97.9883 14.1953 98.1641 13.3555 98.4219 12.6133C98.6797 11.8711 99.0195 11.2383 99.4414 10.7148C99.8711 10.1836 100.391 9.78125 101 9.50781C101.609 9.22656 102.312 9.08594 103.109 9.08594C103.906 9.08594 104.613 9.24219 105.23 9.55469C105.848 9.85938 106.367 10.2969 106.789 10.8672C107.211 11.4375 107.527 12.1211 107.738 12.918C107.957 13.707 108.066 14.5859 108.066 15.5547ZM105.887 15.8008V15.5547C105.887 14.9219 105.82 14.3281 105.688 13.7734C105.555 13.2109 105.348 12.7188 105.066 12.2969C104.793 11.8672 104.441 11.5312 104.012 11.2891C103.582 11.0391 103.07 10.9141 102.477 10.9141C101.93 10.9141 101.453 11.0078 101.047 11.1953C100.648 11.3828 100.309 11.6367 100.027 11.957C99.7461 12.2695 99.5156 12.6289 99.3359 13.0352C99.1641 13.4336 99.0352 13.8477 98.9492 14.2773V17.3125C99.1055 17.8594 99.3242 18.375 99.6055 18.8594C99.8867 19.3359 100.262 19.7227 100.73 20.0195C101.199 20.3086 101.789 20.4531 102.5 20.4531C103.086 20.4531 103.59 20.332 104.012 20.0898C104.441 19.8398 104.793 19.5 105.066 19.0703C105.348 18.6406 105.555 18.1484 105.688 17.5938C105.82 17.0312 105.887 16.4336 105.887 15.8008ZM116.094 22.2344C115.211 22.2344 114.41 22.0859 113.691 21.7891C112.98 21.4844 112.367 21.0586 111.852 20.5117C111.344 19.9648 110.953 19.3164 110.68 18.5664C110.406 17.8164 110.27 16.9961 110.27 16.1055V15.6133C110.27 14.582 110.422 13.6641 110.727 12.8594C111.031 12.0469 111.445 11.3594 111.969 10.7969C112.492 10.2344 113.086 9.80859 113.75 9.51953C114.414 9.23047 115.102 9.08594 115.812 9.08594C116.719 9.08594 117.5 9.24219 118.156 9.55469C118.82 9.86719 119.363 10.3047 119.785 10.8672C120.207 11.4219 120.52 12.0781 120.723 12.8359C120.926 13.5859 121.027 14.4062 121.027 15.2969V16.2695H111.559V14.5H118.859V14.3359C118.828 13.7734 118.711 13.2266 118.508 12.6953C118.312 12.1641 118 11.7266 117.57 11.3828C117.141 11.0391 116.555 10.8672 115.812 10.8672C115.32 10.8672 114.867 10.9727 114.453 11.1836C114.039 11.3867 113.684 11.6914 113.387 12.0977C113.09 12.5039 112.859 13 112.695 13.5859C112.531 14.1719 112.449 14.8477 112.449 15.6133V16.1055C112.449 16.707 112.531 17.2734 112.695 17.8047C112.867 18.3281 113.113 18.7891 113.434 19.1875C113.762 19.5859 114.156 19.8984 114.617 20.125C115.086 20.3516 115.617 20.4648 116.211 20.4648C116.977 20.4648 117.625 20.3086 118.156 19.9961C118.688 19.6836 119.152 19.2656 119.551 18.7422L120.863 19.7852C120.59 20.1992 120.242 20.5938 119.82 20.9688C119.398 21.3438 118.879 21.6484 118.262 21.8828C117.652 22.1172 116.93 22.2344 116.094 22.2344ZM125.727 11.3125V22H123.559V9.32031H125.668L125.727 11.3125ZM129.688 9.25L129.676 11.2656C129.496 11.2266 129.324 11.2031 129.16 11.1953C129.004 11.1797 128.824 11.1719 128.621 11.1719C128.121 11.1719 127.68 11.25 127.297 11.4062C126.914 11.5625 126.59 11.7812 126.324 12.0625C126.059 12.3438 125.848 12.6797 125.691 13.0703C125.543 13.4531 125.445 13.875 125.398 14.3359L124.789 14.6875C124.789 13.9219 124.863 13.2031 125.012 12.5312C125.168 11.8594 125.406 11.2656 125.727 10.75C126.047 10.2266 126.453 9.82031 126.945 9.53125C127.445 9.23438 128.039 9.08594 128.727 9.08594C128.883 9.08594 129.062 9.10547 129.266 9.14453C129.469 9.17578 129.609 9.21094 129.688 9.25Z" fill="#00B37E"/>
<path fill-rule="evenodd" clip-rule="evenodd" d="M9.89943 5.20292C7.60031 5.20292 5.39501 6.09974 3.76877 7.69663C2.14246 9.29358 1.22851 11.4599 1.22851 13.719V22.0814C1.22823 22.1019 1.23209 22.1222 1.23991 22.1411C1.24774 22.16 1.25929 22.1771 1.2738 22.1913C1.28831 22.2056 1.30549 22.2167 1.32427 22.2242C1.34304 22.2317 1.36309 22.2354 1.38326 22.2352L1.39141 22.2351L9.89943 22.2351C11.0379 22.2351 12.1652 22.0149 13.2171 21.5871C14.269 21.1593 15.2248 20.5321 16.0301 19.7414C16.8353 18.9507 17.4742 18.0119 17.9101 16.9785C18.346 15.9452 18.5703 14.8376 18.5703 13.719C18.5703 12.6004 18.346 11.4928 17.9101 10.4595C17.4742 9.42616 16.8353 8.48735 16.0301 7.69663C15.2248 6.90592 14.269 6.27878 13.2171 5.85094C12.1652 5.4231 11.0379 5.20292 9.89943 5.20292ZM9.89943 23.438H1.39481C1.21173 23.4398 1.03013 23.4058 0.860581 23.3382C0.689563 23.2699 0.534316 23.1687 0.403956 23.0407C0.273601 22.9127 0.17077 22.7605 0.101445 22.593C0.0327042 22.427 -0.00173549 22.2492 6.72849e-05 22.0701V13.719C6.72849e-05 11.1419 1.04262 8.67002 2.89892 6.84723C4.75528 5.02437 7.2734 4 9.89943 4C11.1997 4 12.4871 4.25148 13.6883 4.74004C14.8895 5.2286 15.9808 5.94465 16.8999 6.84723C17.8191 7.7498 18.5481 8.82121 19.0455 10.0003C19.5428 11.1793 19.7988 12.4429 19.7988 13.719C19.7988 14.9951 19.5428 16.2587 19.0455 17.4378C18.5481 18.6168 17.8191 19.6882 16.8999 20.5908C15.9808 21.4934 14.8895 22.2094 13.6883 22.698C12.4871 23.1866 11.1997 23.438 9.89943 23.438Z" fill="#00B37E"/>
<path fill-rule="evenodd" clip-rule="evenodd" d="M6.05566 12.5298C6.05566 12.1976 6.33066 11.9283 6.66989 11.9283H12.7254C13.0646 11.9283 13.3396 12.1976 13.3396 12.5298C13.3396 12.8619 13.0646 13.1312 12.7254 13.1312H6.66989C6.33066 13.1312 6.05566 12.8619 6.05566 12.5298Z" fill="#996DFF"/>
<path fill-rule="evenodd" clip-rule="evenodd" d="M6.05566 15.7011C6.05566 15.3689 6.33066 15.0996 6.66989 15.0996H12.7254C13.0646 15.0996 13.3396 15.3689 13.3396 15.7011C13.3396 16.0333 13.0646 16.3026 12.7254 16.3026H6.66989C6.33066 16.3026 6.05566 16.0333 6.05566 15.7011Z" fill="#996DFF"/>
</svg>
